<?xml version="1.0" standalone="no"?>
<!DOCTYPE svg PUBLIC "-//W3C//DTD SVG 20010904//EN"
 "http://www.w3.org/TR/2001/REC-SVG-20010904/DTD/svg10.dtd">
<svg version="1.0" xmlns="http://www.w3.org/2000/svg"
 width="1024.000000pt" height="1024.000000pt" viewBox="0 0 1024.000000 1024.000000"
 preserveAspectRatio="xMidYMid meet">
<metadata>
Created by potrace 1.14, written by Peter Selinger 2001-2017
</metadata>
<g transform="translate(0.000000,1024.000000) scale(0.100000,-0.100000)"
fill="#000000" stroke="none">
<path d="M9125 8704 c-157 -132 -382 -341 -670 -624 -348 -341 -719 -699 -762
-735 -50 -41 -37 -107 18 -90 11 4 121 104 243 223 790 772 1309 1304 1269
1302 -4 -1 -48 -35 -98 -76z"/>
<path d="M4855 7994 c-391 -26 -444 -31 -460 -44 -10 -7 -113 -25 -127 -22 -3
1 -60 -16 -125 -37 -65 -22 -139 -42 -165 -46 -27 -4 -48 -12 -48 -18 0 -6 -3
-7 -7 -4 -3 4 -17 0 -29 -8 -13 -8 -31 -17 -41 -19 -20 -3 -38 -10 -106 -37
-26 -11 -52 -17 -58 -14 -5 4 -8 1 -7 -7 2 -7 -3 -12 -10 -10 -19 4 -92 -20
-92 -30 0 -4 -6 -8 -14 -8 -8 0 -16 -6 -19 -13 -3 -8 -25 -20 -50 -26 -25 -7
-60 -22 -79 -34 -72 -45 -122 -68 -135 -63 -8 3 -11 1 -8 -4 3 -6 -1 -7 -10
-4 -9 4 -23 -2 -34 -15 -10 -11 -22 -21 -26 -21 -17 0 -115 -53 -110 -59 2 -4
-3 -8 -11 -8 -8 0 -13 6 -10 14 8 19 -1 16 -51 -12 -88 -52 -393 -267 -448
-316 -11 -10 -65 -58 -120 -107 -143 -127 -344 -338 -459 -480 -91 -113 -98
-124 -88 -147 7 -14 19 -25 27 -25 25 0 55 19 55 34 0 35 275 347 456 518 501
472 1180 836 1824 977 284 62 474 82 805 86 350 4 536 -12 839 -75 55 -11 101
-18 104 -16 5 6 -51 21 -153 41 -44 9 -87 19 -95 22 -8 2 -42 7 -75 9 -33 2
-85 9 -115 15 -128 24 -478 30 -725 13z m-1795 -554 c0 -11 -39 -34 -47 -27
-2 3 5 8 16 12 12 3 19 11 16 16 -4 5 -1 9 4 9 6 0 11 -4 11 -10z m-85 -60 c3
-5 -6 -12 -20 -16 -13 -3 -23 -10 -20 -14 6 -10 -25 -23 -34 -14 -3 3 2 10 12
15 9 6 23 16 30 24 14 17 24 18 32 5z"/>
<path d="M6030 7893 c0 -5 55 -23 123 -42 100 -27 258 -80 372 -126 17 -7 18
-6 7 6 -13 14 -53 29 -212 80 -52 17 -111 36 -130 43 -19 8 -55 18 -80 24 -25
6 -53 14 -62 17 -10 4 -18 3 -18 -2z"/>
<path d="M6550 7721 c0 -6 149 -71 163 -71 4 1 15 -6 23 -15 9 -8 20 -15 27
-15 6 0 2 7 -9 15 -19 15 -19 15 1 9 16 -5 17 -4 5 5 -8 6 -28 11 -43 11 -16
0 -26 4 -22 10 3 6 -1 7 -9 4 -9 -3 -16 -1 -16 5 0 6 -9 11 -20 11 -11 0 -20
4 -20 8 0 4 -18 13 -40 19 -22 5 -40 7 -40 4z"/>
<path d="M4780 7649 c-272 -27 -439 -56 -643 -114 -250 -70 -441 -146 -708
-281 -539 -272 -986 -645 -1368 -1143 -93 -121 -281 -404 -281 -423 0 -21 21
-38 46 -38 17 0 36 22 82 98 257 417 624 818 1007 1102 491 365 1098 628 1635
709 285 43 730 52 1000 21 464 -54 947 -218 1340 -454 41 -25 80 -46 86 -46
21 0 46 38 39 59 -7 24 -263 161 -451 242 -325 140 -749 243 -1109 269 -163
11 -552 11 -675 -1z"/>
<path d="M6838 7633 c6 -2 18 -2 25 0 6 3 1 5 -13 5 -14 0 -19 -2 -12 -5z"/>
<path d="M6827 7590 c29 -16 55 -30 58 -30 14 0 292 -160 374 -216 51 -35 99
-64 107 -64 17 0 37 37 31 55 -7 18 -117 76 -130 68 -5 -3 -7 -2 -4 3 6 10
-111 81 -125 76 -5 -1 -8 2 -8 6 0 5 -19 19 -41 32 -28 15 -40 18 -37 9 3 -8
13 -16 23 -18 10 -2 24 -9 31 -15 9 -10 8 -15 -7 -24 -15 -9 -17 -9 -13 2 4
10 0 13 -14 9 -12 -3 -22 1 -25 11 -4 9 -13 13 -22 10 -8 -3 -15 -1 -15 6 0 6
-5 8 -10 5 -6 -4 -25 9 -43 27 -18 19 -39 32 -45 30 -7 -2 -20 2 -28 9 -9 7
-23 14 -32 15 -8 2 -18 6 -21 11 -3 4 -17 9 -31 11 -18 2 -11 -5 27 -28z m340
-134 c15 4 15 4 3 -4 -18 -12 -72 -4 -64 9 3 5 13 5 24 -1 10 -5 27 -7 37 -4z
m22 -32 c3 3 17 -3 30 -13 17 -13 19 -18 7 -18 -9 0 -16 4 -16 9 0 4 -3 7 -7
7 -22 -4 -33 3 -32 19 0 10 3 12 6 4 2 -6 8 -10 12 -8z"/>
<path d="M6919 7599 c18 -11 35 -18 38 -15 5 5 -50 36 -64 36 -4 0 7 -9 26
-21z"/>
<path d="M7004 7556 c11 -9 24 -16 30 -16 12 0 7 5 -24 19 -24 11 -24 11 -6
-3z"/>
<path d="M7499 7252 c-40 -36 -41 -77 -5 -133 49 -73 108 -84 160 -30 55 57
37 139 -37 174 -50 24 -82 21 -118 -11z"/>
<path d="M7290 7183 c-8 -3 -79 -69 -157 -146 l-142 -141 -34 12 c-18 7 -39
12 -46 12 -7 0 -43 -27 -79 -60 -37 -33 -73 -60 -80 -60 -7 0 -39 13 -70 29
-214 108 -573 222 -862 275 -255 46 -559 70 -785 63 -475 -17 -919 -113 -1305
-284 -762 -337 -1418 -1004 -1795 -1823 -36 -80 -78 -157 -92 -172 -36 -37
-83 -58 -133 -58 -53 0 -80 -15 -80 -44 0 -38 23 -48 117 -49 48 -1 94 -6 101
-10 7 -5 100 -106 206 -225 289 -325 426 -467 453 -470 28 -4 53 14 53 37 0 9
-60 79 -133 157 -124 132 -218 235 -437 482 -89 100 -91 104 -75 125 9 12 43
78 75 147 33 69 83 170 111 225 290 568 751 1073 1284 1407 355 223 727 363
1145 432 227 37 336 46 586 46 427 0 809 -60 1177 -186 143 -49 401 -168 395
-182 -4 -12 -558 -541 -583 -558 -17 -11 -32 -10 -100 11 -120 37 -323 82
-485 106 -173 26 -559 32 -725 11 -380 -49 -731 -158 -1132 -352 -539 -261
-884 -510 -1316 -946 l-154 -156 -69 -5 c-77 -6 -94 -15 -94 -48 0 -40 30 -55
111 -55 41 0 79 -4 84 -8 6 -4 55 -61 110 -127 116 -141 556 -585 580 -585 27
0 55 20 55 39 0 11 -47 62 -112 122 -197 184 -558 589 -558 628 0 19 340 356
465 460 133 111 340 266 445 333 402 257 893 474 1260 558 264 60 318 65 665
65 310 0 325 -1 470 -29 326 -62 587 -154 953 -336 364 -182 640 -361 917
-599 105 -90 465 -439 465 -451 0 -15 -134 -183 -252 -315 -293 -328 -571
-564 -928 -786 -515 -321 -1081 -489 -1645 -489 -545 0 -1073 157 -1555 463
-52 33 -116 73 -143 90 -35 22 -52 28 -66 21 -28 -13 -1141 -1117 -1141 -1131
0 -19 30 -43 54 -43 17 0 168 144 562 535 296 294 543 535 548 535 5 0 55 -29
110 -64 464 -296 942 -454 1463 -486 443 -26 925 55 1343 227 218 90 530 263
738 411 288 203 610 506 851 800 l134 162 78 0 c66 0 82 3 99 20 23 23 26 53
8 68 -7 5 -46 12 -86 14 l-72 4 -198 196 c-210 209 -241 238 -397 364 -315
254 -763 520 -1110 659 -66 27 -124 51 -128 55 -8 7 341 349 578 568 83 77
119 103 145 108 85 14 102 26 256 178 99 98 154 159 154 172 0 26 -30 53 -50
47z"/>
<path d="M7817 6983 c5 -13 2 -15 -12 -10 -14 6 -15 5 -7 -5 10 -13 12 -19 12
-38 0 -5 46 -58 103 -117 145 -153 273 -310 340 -415 18 -30 45 -36 65 -16 17
17 15 45 -6 65 -10 10 -49 59 -87 108 -111 147 -157 199 -308 353 -89 91 -113
108 -100 75z"/>
<path d="M7504 6951 c-82 -61 -172 -164 -203 -233 -27 -60 -36 -71 -103 -116
-85 -58 -137 -112 -172 -179 -15 -31 -82 -105 -185 -208 -107 -106 -161 -167
-161 -181 0 -26 29 -54 56 -54 12 0 85 64 186 163 134 130 171 173 191 217 29
66 57 95 160 167 78 55 100 84 126 164 12 38 78 112 140 157 49 35 61 51 61
82 0 56 -38 64 -96 21z"/>
<path d="M7045 6704 c-55 -52 -147 -138 -205 -191 -208 -192 -350 -337 -350
-359 0 -25 29 -54 55 -54 11 0 74 54 145 123 69 67 208 201 309 297 111 106
189 188 198 208 19 45 9 72 -25 72 -20 -1 -53 -25 -127 -96z"/>
<path d="M4916 6740 c-242 -18 -523 -69 -744 -137 -371 -112 -787 -335 -1113
-597 -227 -182 -609 -564 -609 -610 0 -8 12 -23 26 -33 l27 -17 80 89 c108
121 308 317 440 430 453 391 957 643 1490 744 281 54 708 72 977 42 217 -24
478 -82 659 -147 80 -28 104 -33 121 -24 23 12 26 42 6 59 -39 32 -377 126
-577 160 -233 40 -564 57 -783 41z"/>
<path d="M7556 6734 c-9 -8 -16 -22 -16 -31 0 -8 71 -86 158 -172 230 -226
460 -515 613 -769 34 -57 70 -107 80 -113 38 -20 77 21 56 59 -64 115 -287
425 -428 595 -117 141 -415 447 -435 447 -7 0 -20 -7 -28 -16z"/>
<path d="M7246 6394 c-28 -28 -17 -51 57 -120 149 -141 315 -312 400 -414 98
-117 276 -377 354 -515 87 -155 98 -177 162 -319 34 -77 75 -158 90 -180 l28
-39 -41 -41 c-23 -23 -100 -108 -171 -191 -198 -228 -498 -545 -652 -687 -249
-230 -472 -398 -723 -543 -524 -305 -1092 -465 -1644 -465 -487 0 -1052 156
-1451 400 -89 55 -118 59 -131 17 -9 -29 36 -67 157 -134 312 -171 637 -277
1039 -340 155 -24 557 -29 725 -8 724 87 1392 394 1978 908 214 188 536 520
795 819 84 97 160 179 170 183 9 4 57 9 106 11 91 4 116 13 116 45 0 31 -28
49 -78 49 -60 0 -124 32 -155 78 -14 20 -51 93 -83 162 -155 335 -340 623
-582 903 -136 157 -414 437 -434 437 -9 0 -24 -7 -32 -16z"/>
<path d="M4960 6133 c-151 -15 -306 -39 -420 -63 -517 -113 -1105 -405 -1590
-789 -201 -159 -530 -472 -530 -505 0 -19 39 -56 59 -56 9 0 79 62 156 138
129 126 258 238 211 184 -29 -33 -28 -50 0 -48 13 0 24 5 24 9 0 4 14 13 30
19 23 8 28 13 20 23 -8 9 -2 11 25 8 19 -2 35 1 35 6 0 6 17 18 38 27 20 10
50 27 67 38 60 42 254 140 298 151 14 4 31 13 38 21 6 8 22 14 34 14 13 0 43
8 67 19 39 16 86 26 173 37 17 2 36 12 43 21 15 21 15 20 -5 -73 -25 -113 -25
-425 0 -549 78 -382 265 -663 582 -870 162 -106 364 -187 555 -221 128 -24
372 -24 495 0 425 81 768 314 973 662 159 269 218 670 147 1003 -8 41 -13 76
-10 79 3 3 5 -2 5 -11 0 -13 9 -17 38 -17 38 0 149 -27 232 -56 99 -35 425
-197 450 -224 9 -10 45 -31 63 -36 9 -4 17 -9 17 -13 0 -3 15 -12 33 -20 17
-8 42 -23 54 -34 13 -11 25 -18 29 -15 3 3 17 -5 31 -18 14 -13 28 -22 31 -19
3 3 12 0 21 -6 9 -7 0 4 -19 23 -19 19 -42 43 -50 53 -37 46 38 -19 175 -154
151 -147 174 -161 208 -123 10 10 17 26 17 36 0 27 -347 359 -521 498 -289
230 -652 453 -932 572 -170 72 -402 152 -555 190 -291 74 -636 110 -842 89z
m294 -364 c82 -15 166 -44 251 -87 91 -45 127 -72 202 -149 242 -251 248 -680
13 -969 -86 -108 -247 -211 -387 -250 -80 -22 -269 -30 -357 -14 -190 33 -373
143 -485 289 -201 265 -211 599 -27 876 144 215 508 356 790 304z m-950 -404
c-55 -168 -70 -278 -55 -407 24 -224 101 -382 257 -527 116 -109 237 -175 392
-213 69 -18 115 -22 227 -21 171 0 254 20 400 93 203 101 338 254 411 468 71
206 63 425 -21 637 -29 72 -31 82 -10 65 8 -7 15 -9 15 -5 0 4 7 2 15 -5 8 -6
18 -9 23 -6 12 7 55 -90 82 -184 56 -202 26 -465 -76 -661 -48 -92 -149 -215
-226 -277 -75 -59 -207 -132 -293 -162 -162 -56 -399 -64 -575 -19 -275 69
-513 260 -624 501 -77 164 -104 374 -72 549 18 100 77 256 95 252 6 -2 11 2
11 8 0 6 9 9 20 6 11 -3 23 -1 26 4 14 24 9 0 -22 -96z m-199 -32 c-84 -290
-38 -619 119 -848 138 -201 342 -354 556 -418 232 -70 453 -71 669 -5 393 121
665 455 711 875 14 128 -4 297 -46 430 -5 17 -5 17 6 0 7 -12 18 -16 31 -12
11 4 19 2 19 -6 0 -8 3 -9 14 0 11 9 16 0 29 -46 45 -163 48 -393 8 -545 -81
-307 -278 -558 -547 -695 -207 -106 -354 -138 -594 -130 -234 7 -402 57 -590
175 -263 165 -429 401 -496 702 -34 151 -17 426 32 521 7 15 10 29 7 33 -6 5
23 10 55 9 7 -1 18 10 24 23 20 42 17 21 -7 -63z m-249 -22 c-8 -13 21 -34 34
-26 9 5 9 -9 3 -51 -4 -33 -8 -131 -7 -219 1 -130 5 -178 24 -255 78 -326 269
-580 565 -754 367 -216 833 -232 1218 -40 129 64 201 116 308 223 216 215 326
466 345 786 6 88 0 174 -22 310 l-6 40 28 -38 c17 -23 30 -33 35 -26 11 18 17
-2 30 -97 20 -152 -1 -374 -52 -542 -28 -92 -110 -255 -164 -327 -75 -100
-223 -242 -317 -306 -228 -152 -484 -229 -762 -229 -231 0 -401 41 -611 146
-126 62 -227 135 -333 238 -174 169 -272 344 -333 591 -25 101 -36 359 -20
462 11 73 26 123 36 123 4 0 4 -4 1 -9z m3525 -248 c13 -16 12 -17 -3 -4 -10
7 -18 15 -18 17 0 8 8 3 21 -13z"/>
<path d="M5033 5475 c-126 -28 -244 -119 -299 -231 -27 -55 -29 -68 -29 -174
0 -105 2 -120 28 -174 56 -121 135 -189 261 -228 183 -56 384 22 479 184 68
116 76 271 19 389 -84 176 -277 275 -459 234z m215 -124 c65 -33 118 -87 149
-149 37 -75 40 -201 6 -273 -41 -91 -136 -163 -234 -178 -142 -23 -277 47
-340 175 -39 79 -43 157 -14 244 23 70 118 169 185 193 65 24 191 18 248 -12z"/>
<path d="M5683 4593 c-14 -14 -34 -23 -53 -23 -16 0 -30 -5 -30 -11 0 -6 -9
-8 -20 -4 -11 3 -20 3 -20 -2 0 -5 -18 -9 -41 -10 -22 -1 -47 -7 -54 -13 -7
-6 -39 -13 -70 -16 -32 -3 -76 -12 -98 -20 -49 -17 -57 -17 -57 0 0 11 -8 12
-37 5 -21 -4 -39 -13 -41 -18 -4 -13 -42 -15 -42 -2 0 5 -39 7 -87 5 -195 -9
-241 -9 -240 1 2 10 -10 12 -85 17 -21 1 -38 7 -38 13 0 11 -68 41 -82 37 -5
-1 -8 2 -8 7 0 5 -7 11 -15 15 -30 11 4 -33 65 -83 238 -198 604 -228 871 -70
73 42 161 118 153 131 -4 6 -3 8 3 5 5 -3 20 7 32 24 28 37 24 43 -6 12z"/>
<path d="M4526 4598 c3 -4 9 -8 15 -8 5 0 9 4 9 8 0 5 -7 9 -15 9 -8 0 -12 -4
-9 -9z"/>
<path d="M7028 6079 c-32 -18 -22 -55 25 -91 241 -192 311 -252 432 -373 77
-78 158 -165 180 -193 46 -59 76 -73 105 -47 11 10 20 22 20 27 0 15 -208 244
-302 333 -131 123 -417 356 -437 355 -3 0 -14 -5 -23 -11z"/>
<path d="M2775 4978 c-16 -17 -23 -26 -14 -20 9 7 20 8 24 4 5 -4 5 -1 1 6 -6
9 -1 11 19 8 21 -4 24 -2 16 8 -6 7 -8 16 -4 19 3 4 2 7 -3 6 -5 0 -22 -14
-39 -31z"/>
<path d="M7911 3978 c-413 -453 -620 -640 -956 -860 -569 -374 -1283 -578
-1945 -555 -570 20 -1082 172 -1571 467 -54 33 -104 60 -112 60 -20 0 -37 -21
-37 -47 0 -32 135 -119 335 -217 309 -152 619 -252 945 -305 189 -31 324 -41
555 -41 388 0 693 50 1071 175 509 169 963 445 1360 828 200 193 484 501 484
525 0 10 -5 23 -12 30 -25 25 -52 11 -117 -60z"/>
<path d="M3135 3918 c-11 -6 -57 -50 -102 -97 l-83 -86 -46 53 c-77 88 -132
103 -200 54 -70 -52 -835 -816 -834 -835 0 -9 52 -71 116 -137 95 -98 122
-120 145 -120 20 0 34 8 45 26 l17 25 -104 105 -104 105 381 379 c236 235 389
380 401 380 10 0 40 -22 66 -48 l47 -48 -280 -273 c-282 -274 -300 -297 -268
-329 31 -31 59 -13 186 116 259 260 652 642 662 642 5 0 17 11 26 25 15 23 15
27 0 50 -18 27 -39 31 -71 13z"/>
<path d="M3045 3167 c-132 -127 -344 -332 -470 -453 -226 -218 -229 -222 -217
-248 10 -23 17 -27 46 -24 28 3 73 42 312 274 153 149 360 348 459 443 99 95
181 182 183 193 5 27 -16 48 -47 48 -20 0 -78 -51 -266 -233z"/>
<path d="M1561 3124 c-40 -29 -27 -54 99 -188 66 -71 120 -132 120 -137 0 -5
-6 -9 -14 -9 -20 0 -46 -39 -46 -67 0 -13 11 -29 25 -39 20 -13 30 -14 59 -4
19 6 40 18 47 26 11 13 21 6 75 -47 35 -34 60 -67 57 -72 -3 -6 -2 -7 4 -4 5
3 27 -11 47 -32 l37 -38 -40 -32 c-46 -37 -54 -76 -23 -104 28 -26 67 -21 107
14 l35 31 33 -30 c17 -16 84 -80 147 -141 63 -61 123 -113 133 -117 25 -8 67
22 67 48 0 13 -56 78 -162 186 -545 555 -736 745 -759 757 -22 12 -29 12 -48
-1z"/>
<path d="M1070 2415 c-7 -9 -10 -25 -6 -40 4 -16 132 -153 319 -341 172 -174
316 -322 320 -330 11 -19 62 -18 81 2 9 8 16 24 16 34 0 12 -130 151 -332 355
-346 348 -363 362 -398 320z"/>
<path d="M1348 2419 c-11 -6 -18 -22 -18 -39 0 -24 32 -62 191 -224 105 -108
199 -196 208 -196 25 0 61 29 61 48 0 18 -399 422 -416 422 -5 0 -17 -5 -26
-11z"/>
<path d="M2125 2370 c4 -6 11 -8 16 -5 14 9 11 15 -7 15 -8 0 -12 -5 -9 -10z"/>
</g>
</svg>
